<svg width="21" height="24" viewBox="0 0 21 24" fill="none" xmlns="http://www.w3.org/2000/svg">
<path fill-rule="evenodd" clip-rule="evenodd" d="M12.8387 17.296C12.8279 18.6605 12.5624 21.391 12.92 22.5101C13.0922 23.0492 13.5941 23.173 13.6514 23.851C13.5492 23.8994 13.483 23.9322 13.4076 24C10.4409 23.4443 11.0877 20.244 11.1324 17.0725C10.9969 17.0725 10.8615 17.0725 10.7261 17.0725C10.7777 19.8245 11.5762 23.9532 8.28834 23.9255C8.23706 23.7948 8.27267 23.8531 8.20708 23.7765C8.35916 23.2944 8.79507 23.1056 8.93845 22.5846C8.96553 20.7972 8.99262 19.009 9.01971 17.2215C8.99262 17.2215 8.96553 17.2215 8.93845 17.2215C8.36998 18.0752 8.54779 19.7601 8.45086 21.0205C8.43615 21.2122 8.55476 22.0116 8.3696 22.2868C8.08672 23.0688 6.81339 23.4734 5.68808 23.2553C5.66099 23.1808 5.63391 23.1063 5.60682 23.0318C7.14135 22.1348 6.94284 21.1883 6.90705 18.9349C6.85287 18.9349 6.79869 18.9349 6.74451 18.9349C6.39701 19.1385 5.38701 19.0819 5.03816 19.0093C4.47976 18.8932 4.10924 18.9709 3.65668 18.7859C2.37852 18.2632 2.2365 17.0151 1.46275 16.0298C1.07907 15.5414 0.0909382 15.3305 0 14.6146C0.054176 14.6146 0.108345 14.6146 0.162521 14.6146C1.62179 13.7362 3.06635 16.4649 3.8192 16.9237C4.68602 17.4521 6.09421 17.1091 6.98831 16.9237C7.25899 16.1644 7.46699 15.5985 8.126 15.2106C8.043 15.1506 8.10375 15.1841 7.96347 15.1361C7.56625 14.9167 6.90568 15.0369 6.41965 14.9126C5.36438 14.6428 4.24623 14.3046 3.41308 13.7952C0.688413 12.1296 -0.604459 6.48855 2.27538 4.03721C2.14942 2.88151 1.46971 -0.00295654 3.25056 0.0147798C3.79212 0.163765 4.33407 0.312754 4.87564 0.461739C5.61785 0.757227 6.22617 1.44149 7.06957 1.57913C7.69511 1.1813 11.1777 0.88546 12.4326 1.13217C12.8124 1.20684 14.2806 1.53142 14.6265 1.43014C14.8351 1.36913 15.0932 1.08553 15.2766 0.983188C16.194 0.471672 17.4967 -0.0996196 18.7708 0.0147798C18.9045 0.502529 19.1195 1.07134 19.2584 1.65344C19.4229 2.3425 18.8409 3.23801 19.1771 3.73906C19.2981 4.05175 19.5645 4.17236 19.746 4.40949C20.0927 4.86266 20.4439 5.5017 20.6399 6.04815C21.6971 8.99576 20.2643 12.7585 18.446 13.8694C17.6053 14.383 16.4525 14.6489 15.3581 14.9122C14.8947 15.0238 13.972 14.8917 13.733 15.2102C15.3368 15.7384 15.033 18.4929 15.0332 20.4988C15.0332 20.9706 15.0332 21.4424 15.0332 21.914C15.2426 22.5041 16.1024 22.5602 16.2522 23.1804C16.1709 23.2052 16.0897 23.2301 16.0084 23.2549C15.309 23.7006 13.7988 22.8526 13.652 22.4355C13.3257 22.0951 13.4082 21.3628 13.4082 20.7223C13.4082 19.4921 13.4941 18.1291 13.0831 17.2958C13.0013 17.296 12.92 17.296 12.8387 17.296Z" fill="white"/>
</svg>
