<svg width="22" height="19" viewBox="0 0 22 19" fill="none" xmlns="http://www.w3.org/2000/svg">
<path d="M0.728 6.088H4.472V19H0.728V6.088ZM2.6 4.288C1.912 4.288 1.352 4.088 0.92 3.688C0.488 3.288 0.272 2.792 0.272 2.2C0.272 1.608 0.488 1.112 0.92 0.711999C1.352 0.311999 1.912 0.111999 2.6 0.111999C3.288 0.111999 3.848 0.303999 4.28 0.688C4.712 1.072 4.928 1.552 4.928 2.128C4.928 2.752 4.712 3.272 4.28 3.688C3.848 4.088 3.288 4.288 2.6 4.288ZM15.7948 5.896C17.3948 5.896 18.6828 6.376 19.6588 7.336C20.6508 8.296 21.1468 9.72 21.1468 11.608V19H17.4028V12.184C17.4028 11.16 17.1788 10.4 16.7308 9.904C16.2828 9.392 15.6348 9.136 14.7868 9.136C13.8428 9.136 13.0908 9.432 12.5308 10.024C11.9708 10.6 11.6908 11.464 11.6908 12.616V19H7.94675V6.088H11.5228V7.6C12.0188 7.056 12.6348 6.64 13.3708 6.352C14.1068 6.048 14.9148 5.896 15.7948 5.896Z" fill="white"/>
</svg>
