<svg width="333" height="100" viewBox="0 0 333 100" fill="none" xmlns="http://www.w3.org/2000/svg">
<path fill-rule="evenodd" clip-rule="evenodd" d="M87.5 12.5H12.5C7.89759 12.5 4.16663 16.231 4.16663 20.8333V79.1667C4.16663 83.769 7.89759 87.5 12.5 87.5H87.5C92.1023 87.5 95.8333 83.769 95.8333 79.1667V20.8333C95.8333 16.231 92.1023 12.5 87.5 12.5ZM12.5 79.1667V20.8333H87.5V79.1667H12.5ZM34.7219 49.9998L22.4996 40.8332L27.4996 34.1665L48.6108 49.9998L27.4996 65.8332L22.4996 59.1665L34.7219 49.9998ZM50 58.3333V66.6667H70.8333V58.3333H50Z" fill="#5D73A1"/>
<line x1="119.5" y1="5" x2="119.5" y2="90" stroke="#7E7E7E" stroke-width="3"/>
<path d="M162.455 40.6172L167.049 18.1406H172.196L165.306 48H160.343L154.662 26.2002L148.858 48H143.875L136.984 18.1406H142.132L146.767 40.5762L152.468 18.1406H156.815L162.455 40.6172ZM186.825 30.3633C186.169 30.2539 185.492 30.1992 184.795 30.1992C182.511 30.1992 180.973 31.0742 180.18 32.8242V48H175.197V25.8105H179.955L180.078 28.292C181.281 26.3643 182.949 25.4004 185.082 25.4004C185.793 25.4004 186.38 25.4961 186.845 25.6875L186.825 30.3633ZM195.424 48H190.441V25.8105H195.424V48ZM190.133 20.0479C190.133 19.2822 190.372 18.6465 190.851 18.1406C191.343 17.6348 192.04 17.3818 192.943 17.3818C193.845 17.3818 194.542 17.6348 195.034 18.1406C195.527 18.6465 195.773 19.2822 195.773 20.0479C195.773 20.7998 195.527 21.4287 195.034 21.9346C194.542 22.4268 193.845 22.6729 192.943 22.6729C192.04 22.6729 191.343 22.4268 190.851 21.9346C190.372 21.4287 190.133 20.7998 190.133 20.0479ZM207.263 20.417V25.8105H211.18V29.502H207.263V41.8887C207.263 42.7363 207.428 43.3516 207.756 43.7344C208.097 44.1035 208.699 44.2881 209.56 44.2881C210.135 44.2881 210.716 44.2197 211.304 44.083V47.9385C210.169 48.2529 209.075 48.4102 208.022 48.4102C204.194 48.4102 202.28 46.2979 202.28 42.0732V29.502H198.63V25.8105H202.28V20.417H207.263ZM224.927 48.4102C221.769 48.4102 219.205 47.4189 217.237 45.4365C215.282 43.4404 214.304 40.7881 214.304 37.4795V36.8643C214.304 34.6494 214.728 32.6738 215.576 30.9375C216.437 29.1875 217.64 27.8271 219.185 26.8564C220.73 25.8857 222.453 25.4004 224.353 25.4004C227.374 25.4004 229.705 26.3643 231.346 28.292C233 30.2197 233.828 32.9473 233.828 36.4746V38.4844H219.329C219.479 40.3164 220.087 41.7656 221.154 42.832C222.234 43.8984 223.587 44.4316 225.214 44.4316C227.497 44.4316 229.357 43.5088 230.792 41.6631L233.479 44.2266C232.59 45.5527 231.401 46.585 229.911 47.3232C228.434 48.0479 226.773 48.4102 224.927 48.4102ZM224.332 29.3994C222.965 29.3994 221.858 29.8779 221.01 30.835C220.176 31.792 219.643 33.125 219.411 34.834H228.906V34.4648C228.796 32.7969 228.352 31.5391 227.573 30.6914C226.793 29.8301 225.713 29.3994 224.332 29.3994ZM262.176 33.8496C262.176 36.7754 261.67 39.3457 260.658 41.5605C259.646 43.7617 258.197 45.457 256.311 46.6465C254.438 47.8223 252.277 48.4102 249.83 48.4102C247.41 48.4102 245.25 47.8223 243.35 46.6465C241.463 45.457 240 43.7686 238.961 41.5811C237.936 39.3936 237.416 36.8711 237.402 34.0137V32.332C237.402 29.4199 237.915 26.8496 238.94 24.6211C239.979 22.3926 241.436 20.6904 243.309 19.5146C245.195 18.3252 247.355 17.7305 249.789 17.7305C252.223 17.7305 254.376 18.3184 256.249 19.4941C258.136 20.6562 259.592 22.3379 260.617 24.5391C261.643 26.7266 262.162 29.2764 262.176 32.1885V33.8496ZM256.987 32.291C256.987 28.9824 256.358 26.4463 255.101 24.6826C253.856 22.9189 252.086 22.0371 249.789 22.0371C247.547 22.0371 245.79 22.9189 244.519 24.6826C243.261 26.4326 242.618 28.9141 242.591 32.127V33.8496C242.591 37.1309 243.227 39.667 244.498 41.458C245.783 43.249 247.561 44.1445 249.83 44.1445C252.127 44.1445 253.891 43.2695 255.121 41.5195C256.365 39.7695 256.987 37.2129 256.987 33.8496V32.291ZM271.636 25.8105L271.78 28.374C273.421 26.3916 275.574 25.4004 278.24 25.4004C282.861 25.4004 285.212 28.0459 285.295 33.3369V48H280.311V33.624C280.311 32.2158 280.004 31.1768 279.388 30.5068C278.787 29.8232 277.796 29.4814 276.415 29.4814C274.405 29.4814 272.908 30.3906 271.923 32.209V48H266.94V25.8105H271.636ZM299.656 44.4316C300.901 44.4316 301.933 44.0693 302.753 43.3447C303.573 42.6201 304.011 41.7246 304.066 40.6582H308.762C308.707 42.0391 308.277 43.3311 307.47 44.5342C306.663 45.7236 305.57 46.667 304.189 47.3643C302.808 48.0615 301.318 48.4102 299.718 48.4102C296.614 48.4102 294.154 47.4053 292.335 45.3955C290.517 43.3857 289.608 40.6104 289.608 37.0693V36.5566C289.608 33.1797 290.51 30.4795 292.315 28.4561C294.119 26.4189 296.58 25.4004 299.697 25.4004C302.336 25.4004 304.483 26.1729 306.137 27.7178C307.805 29.249 308.68 31.2656 308.762 33.7676H304.066C304.011 32.4961 303.573 31.4502 302.753 30.6299C301.946 29.8096 300.914 29.3994 299.656 29.3994C298.043 29.3994 296.799 29.9873 295.924 31.1631C295.049 32.3252 294.605 34.0957 294.591 36.4746V37.2744C294.591 39.6807 295.022 41.4785 295.883 42.668C296.758 43.8438 298.016 44.4316 299.656 44.4316ZM322.447 48.4102C319.289 48.4102 316.725 47.4189 314.757 45.4365C312.802 43.4404 311.824 40.7881 311.824 37.4795V36.8643C311.824 34.6494 312.248 32.6738 313.096 30.9375C313.957 29.1875 315.16 27.8271 316.705 26.8564C318.25 25.8857 319.972 25.4004 321.873 25.4004C324.894 25.4004 327.225 26.3643 328.866 28.292C330.52 30.2197 331.347 32.9473 331.347 36.4746V38.4844H316.848C316.999 40.3164 317.607 41.7656 318.674 42.832C319.754 43.8984 321.107 44.4316 322.734 44.4316C325.017 44.4316 326.877 43.5088 328.312 41.6631L330.999 44.2266C330.11 45.5527 328.921 46.585 327.43 47.3232C325.954 48.0479 324.293 48.4102 322.447 48.4102ZM321.852 29.3994C320.485 29.3994 319.378 29.8779 318.53 30.835C317.696 31.792 317.163 33.125 316.93 34.834H326.426V34.4648C326.316 32.7969 325.872 31.5391 325.093 30.6914C324.313 29.8301 323.233 29.3994 321.852 29.3994Z" fill="#4D4D4D"/>
<path d="M140.699 76.6602V83H137.734V65.9375H144.262C146.168 65.9375 147.68 66.4336 148.797 67.4258C149.922 68.418 150.484 69.7305 150.484 71.3633C150.484 73.0352 149.934 74.3359 148.832 75.2656C147.738 76.1953 146.203 76.6602 144.227 76.6602H140.699ZM140.699 74.2812H144.262C145.316 74.2812 146.121 74.0352 146.676 73.543C147.23 73.043 147.508 72.3242 147.508 71.3867C147.508 70.4648 147.227 69.7305 146.664 69.1836C146.102 68.6289 145.328 68.3438 144.344 68.3281H140.699V74.2812ZM160.642 81.7578C159.806 82.7422 158.619 83.2344 157.08 83.2344C155.705 83.2344 154.662 82.832 153.951 82.0273C153.248 81.2227 152.896 80.0586 152.896 78.5352V70.3203H155.744V78.5C155.744 80.1094 156.412 80.9141 157.748 80.9141C159.13 80.9141 160.064 80.418 160.548 79.4258V70.3203H163.396V83H160.712L160.642 81.7578ZM177.573 76.7891C177.573 78.7578 177.132 80.3242 176.249 81.4883C175.374 82.6523 174.167 83.2344 172.628 83.2344C171.144 83.2344 169.987 82.6992 169.159 81.6289L169.019 83H166.441V65H169.288V71.5391C170.109 70.5703 171.214 70.0859 172.605 70.0859C174.152 70.0859 175.366 70.6602 176.249 71.8086C177.132 72.957 177.573 74.5625 177.573 76.625V76.7891ZM174.726 76.543C174.726 75.168 174.484 74.1367 173.999 73.4492C173.515 72.7617 172.812 72.418 171.89 72.418C170.655 72.418 169.788 72.957 169.288 74.0352V79.2617C169.796 80.3633 170.671 80.9141 171.913 80.9141C172.804 80.9141 173.491 80.582 173.976 79.918C174.46 79.2539 174.71 78.25 174.726 76.9062V76.543ZM183.149 83H180.302V65H183.149V83ZM189.44 83H186.592V70.3203H189.44V83ZM186.416 67.0273C186.416 66.5898 186.553 66.2266 186.827 65.9375C187.108 65.6484 187.506 65.5039 188.022 65.5039C188.537 65.5039 188.936 65.6484 189.217 65.9375C189.498 66.2266 189.639 66.5898 189.639 67.0273C189.639 67.457 189.498 67.8164 189.217 68.1055C188.936 68.3867 188.537 68.5273 188.022 68.5273C187.506 68.5273 187.108 68.3867 186.827 68.1055C186.553 67.8164 186.416 67.457 186.416 67.0273ZM199.809 79.5547C199.809 79.0469 199.598 78.6602 199.176 78.3945C198.762 78.1289 198.07 77.8945 197.102 77.6914C196.133 77.4883 195.324 77.2305 194.676 76.918C193.254 76.2305 192.543 75.2344 192.543 73.9297C192.543 72.8359 193.004 71.9219 193.926 71.1875C194.848 70.4531 196.02 70.0859 197.441 70.0859C198.957 70.0859 200.18 70.4609 201.109 71.2109C202.047 71.9609 202.516 72.9336 202.516 74.1289H199.668C199.668 73.582 199.465 73.1289 199.059 72.7695C198.652 72.4023 198.113 72.2188 197.441 72.2188C196.816 72.2188 196.305 72.3633 195.906 72.6523C195.516 72.9414 195.32 73.3281 195.32 73.8125C195.32 74.25 195.504 74.5898 195.871 74.832C196.238 75.0742 196.98 75.3203 198.098 75.5703C199.215 75.8125 200.09 76.1055 200.723 76.4492C201.363 76.7852 201.836 77.1914 202.141 77.668C202.453 78.1445 202.609 78.7227 202.609 79.4023C202.609 80.543 202.137 81.4688 201.191 82.1797C200.246 82.8828 199.008 83.2344 197.477 83.2344C196.438 83.2344 195.512 83.0469 194.699 82.6719C193.887 82.2969 193.254 81.7812 192.801 81.125C192.348 80.4688 192.121 79.7617 192.121 79.0039H194.887C194.926 79.6758 195.18 80.1953 195.648 80.5625C196.117 80.9219 196.738 81.1016 197.512 81.1016C198.262 81.1016 198.832 80.9609 199.223 80.6797C199.613 80.3906 199.809 80.0156 199.809 79.5547ZM208.056 71.7031C208.986 70.625 210.162 70.0859 211.584 70.0859C214.287 70.0859 215.658 71.6289 215.697 74.7148V83H212.849V74.8203C212.849 73.9453 212.658 73.3281 212.275 72.9688C211.9 72.6016 211.345 72.418 210.611 72.418C209.47 72.418 208.619 72.9258 208.056 73.9414V83H205.209V65H208.056V71.7031ZM232.438 83C232.313 82.7578 232.204 82.3633 232.11 81.8164C231.204 82.7617 230.095 83.2344 228.782 83.2344C227.509 83.2344 226.47 82.8711 225.665 82.1445C224.86 81.418 224.458 80.5195 224.458 79.4492C224.458 78.0977 224.958 77.0625 225.958 76.3438C226.966 75.6172 228.403 75.2539 230.27 75.2539H232.016V74.4219C232.016 73.7656 231.833 73.2422 231.466 72.8516C231.098 72.4531 230.54 72.2539 229.79 72.2539C229.141 72.2539 228.61 72.418 228.196 72.7461C227.782 73.0664 227.575 73.4766 227.575 73.9766H224.727C224.727 73.2812 224.958 72.6328 225.419 72.0312C225.88 71.4219 226.505 70.9453 227.294 70.6016C228.091 70.2578 228.977 70.0859 229.954 70.0859C231.438 70.0859 232.622 70.4609 233.505 71.2109C234.387 71.9531 234.841 73 234.864 74.3516V80.0703C234.864 81.2109 235.024 82.1211 235.345 82.8008V83H232.438ZM229.309 80.9492C229.872 80.9492 230.399 80.8125 230.891 80.5391C231.391 80.2656 231.766 79.8984 232.016 79.4375V77.0469H230.481C229.427 77.0469 228.634 77.2305 228.102 77.5977C227.571 77.9648 227.305 78.4844 227.305 79.1562C227.305 79.7031 227.485 80.1406 227.845 80.4688C228.212 80.7891 228.7 80.9492 229.309 80.9492ZM240.639 70.3203L240.721 71.7852C241.659 70.6523 242.889 70.0859 244.412 70.0859C247.053 70.0859 248.397 71.5977 248.444 74.6211V83H245.596V74.7852C245.596 73.9805 245.42 73.3867 245.069 73.0039C244.725 72.6133 244.159 72.418 243.37 72.418C242.221 72.418 241.366 72.9375 240.803 73.9766V83H237.955V70.3203H240.639ZM255.941 78.9219L258.52 70.3203H261.555L256.516 84.9219C255.742 87.0547 254.43 88.1211 252.578 88.1211C252.164 88.1211 251.707 88.0508 251.207 87.9102V85.707L251.746 85.7422C252.465 85.7422 253.004 85.6094 253.363 85.3438C253.73 85.0859 254.02 84.6484 254.23 84.0312L254.641 82.9414L250.188 70.3203H253.258L255.941 78.9219ZM274.49 79.0742L276.505 70.3203H279.283L275.826 83H273.482L270.763 74.293L268.091 83H265.748L262.279 70.3203H265.056L267.107 78.9805L269.709 70.3203H271.853L274.49 79.0742ZM284.144 71.7031C285.073 70.625 286.249 70.0859 287.671 70.0859C290.374 70.0859 291.745 71.6289 291.784 74.7148V83H288.937V74.8203C288.937 73.9453 288.745 73.3281 288.363 72.9688C287.988 72.6016 287.433 72.418 286.698 72.418C285.558 72.418 284.706 72.9258 284.144 73.9414V83H281.296V65H284.144V71.7031ZM300.407 83.2344C298.602 83.2344 297.137 82.668 296.012 81.5352C294.895 80.3945 294.337 78.8789 294.337 76.9883V76.6367C294.337 75.3711 294.579 74.2422 295.063 73.25C295.555 72.25 296.243 71.4727 297.126 70.918C298.009 70.3633 298.993 70.0859 300.079 70.0859C301.805 70.0859 303.137 70.6367 304.075 71.7383C305.02 72.8398 305.493 74.3984 305.493 76.4141V77.5625H297.208C297.294 78.6094 297.641 79.4375 298.251 80.0469C298.868 80.6562 299.641 80.9609 300.571 80.9609C301.876 80.9609 302.938 80.4336 303.759 79.3789L305.294 80.8438C304.786 81.6016 304.106 82.1914 303.255 82.6133C302.411 83.0273 301.462 83.2344 300.407 83.2344ZM300.067 72.3711C299.286 72.3711 298.653 72.6445 298.169 73.1914C297.692 73.7383 297.387 74.5 297.255 75.4766H302.68V75.2656C302.618 74.3125 302.364 73.5938 301.919 73.1094C301.473 72.6172 300.856 72.3711 300.067 72.3711ZM314.502 72.9219C314.127 72.8594 313.741 72.8281 313.342 72.8281C312.038 72.8281 311.159 73.3281 310.705 74.3281V83H307.858V70.3203H310.577L310.647 71.7383C311.334 70.6367 312.288 70.0859 313.506 70.0859C313.913 70.0859 314.248 70.1406 314.514 70.25L314.502 72.9219ZM321.801 83.2344C319.996 83.2344 318.531 82.668 317.406 81.5352C316.289 80.3945 315.73 78.8789 315.73 76.9883V76.6367C315.73 75.3711 315.973 74.2422 316.457 73.25C316.949 72.25 317.637 71.4727 318.52 70.918C319.402 70.3633 320.387 70.0859 321.473 70.0859C323.199 70.0859 324.531 70.6367 325.469 71.7383C326.414 72.8398 326.887 74.3984 326.887 76.4141V77.5625H318.602C318.688 78.6094 319.035 79.4375 319.645 80.0469C320.262 80.6562 321.035 80.9609 321.965 80.9609C323.27 80.9609 324.332 80.4336 325.152 79.3789L326.688 80.8438C326.18 81.6016 325.5 82.1914 324.648 82.6133C323.805 83.0273 322.855 83.2344 321.801 83.2344ZM321.461 72.3711C320.68 72.3711 320.047 72.6445 319.562 73.1914C319.086 73.7383 318.781 74.5 318.648 75.4766H324.074V75.2656C324.012 74.3125 323.758 73.5938 323.312 73.1094C322.867 72.6172 322.25 72.3711 321.461 72.3711Z" fill="#4D4D4D"/>
</svg>
