<svg width="336" height="85" viewBox="0 0 336 85" fill="none" xmlns="http://www.w3.org/2000/svg">
<line x1="122.5" y1="6.55671e-08" x2="122.5" y2="85" stroke="#7E7E7E" stroke-width="3"/>
<path d="M165.455 35.6172L170.049 13.1406H175.196L168.306 43H163.343L157.662 21.2002L151.858 43H146.875L139.984 13.1406H145.132L149.767 35.5762L155.468 13.1406H159.815L165.455 35.6172ZM189.825 25.3633C189.169 25.2539 188.492 25.1992 187.795 25.1992C185.511 25.1992 183.973 26.0742 183.18 27.8242V43H178.197V20.8105H182.955L183.078 23.292C184.281 21.3643 185.949 20.4004 188.082 20.4004C188.793 20.4004 189.38 20.4961 189.845 20.6875L189.825 25.3633ZM198.424 43H193.441V20.8105H198.424V43ZM193.133 15.0479C193.133 14.2822 193.372 13.6465 193.851 13.1406C194.343 12.6348 195.04 12.3818 195.943 12.3818C196.845 12.3818 197.542 12.6348 198.034 13.1406C198.527 13.6465 198.773 14.2822 198.773 15.0479C198.773 15.7998 198.527 16.4287 198.034 16.9346C197.542 17.4268 196.845 17.6729 195.943 17.6729C195.04 17.6729 194.343 17.4268 193.851 16.9346C193.372 16.4287 193.133 15.7998 193.133 15.0479ZM210.263 15.417V20.8105H214.18V24.502H210.263V36.8887C210.263 37.7363 210.428 38.3516 210.756 38.7344C211.097 39.1035 211.699 39.2881 212.56 39.2881C213.135 39.2881 213.716 39.2197 214.304 39.083V42.9385C213.169 43.2529 212.075 43.4102 211.022 43.4102C207.194 43.4102 205.28 41.2979 205.28 37.0732V24.502H201.63V20.8105H205.28V15.417H210.263ZM227.927 43.4102C224.769 43.4102 222.205 42.4189 220.237 40.4365C218.282 38.4404 217.304 35.7881 217.304 32.4795V31.8643C217.304 29.6494 217.728 27.6738 218.576 25.9375C219.437 24.1875 220.64 22.8271 222.185 21.8564C223.73 20.8857 225.453 20.4004 227.353 20.4004C230.374 20.4004 232.705 21.3643 234.346 23.292C236 25.2197 236.828 27.9473 236.828 31.4746V33.4844H222.329C222.479 35.3164 223.087 36.7656 224.154 37.832C225.234 38.8984 226.587 39.4316 228.214 39.4316C230.497 39.4316 232.357 38.5088 233.792 36.6631L236.479 39.2266C235.59 40.5527 234.401 41.585 232.911 42.3232C231.434 43.0479 229.773 43.4102 227.927 43.4102ZM227.332 24.3994C225.965 24.3994 224.858 24.8779 224.01 25.835C223.176 26.792 222.643 28.125 222.411 29.834H231.906V29.4648C231.796 27.7969 231.352 26.5391 230.573 25.6914C229.793 24.8301 228.713 24.3994 227.332 24.3994ZM265.176 28.8496C265.176 31.7754 264.67 34.3457 263.658 36.5605C262.646 38.7617 261.197 40.457 259.311 41.6465C257.438 42.8223 255.277 43.4102 252.83 43.4102C250.41 43.4102 248.25 42.8223 246.35 41.6465C244.463 40.457 243 38.7686 241.961 36.5811C240.936 34.3936 240.416 31.8711 240.402 29.0137V27.332C240.402 24.4199 240.915 21.8496 241.94 19.6211C242.979 17.3926 244.436 15.6904 246.309 14.5146C248.195 13.3252 250.355 12.7305 252.789 12.7305C255.223 12.7305 257.376 13.3184 259.249 14.4941C261.136 15.6563 262.592 17.3379 263.617 19.5391C264.643 21.7266 265.162 24.2764 265.176 27.1885V28.8496ZM259.987 27.291C259.987 23.9824 259.358 21.4463 258.101 19.6826C256.856 17.9189 255.086 17.0371 252.789 17.0371C250.547 17.0371 248.79 17.9189 247.519 19.6826C246.261 21.4326 245.618 23.9141 245.591 27.127V28.8496C245.591 32.1309 246.227 34.667 247.498 36.458C248.783 38.249 250.561 39.1445 252.83 39.1445C255.127 39.1445 256.891 38.2695 258.121 36.5195C259.365 34.7695 259.987 32.2129 259.987 28.8496V27.291ZM274.636 20.8105L274.78 23.374C276.421 21.3916 278.574 20.4004 281.24 20.4004C285.861 20.4004 288.212 23.0459 288.295 28.3369V43H283.311V28.624C283.311 27.2158 283.004 26.1768 282.388 25.5068C281.787 24.8232 280.796 24.4814 279.415 24.4814C277.405 24.4814 275.908 25.3906 274.923 27.209V43H269.94V20.8105H274.636ZM302.656 39.4316C303.901 39.4316 304.933 39.0693 305.753 38.3447C306.573 37.6201 307.011 36.7246 307.066 35.6582H311.762C311.707 37.0391 311.277 38.3311 310.47 39.5342C309.663 40.7236 308.57 41.667 307.189 42.3643C305.808 43.0615 304.318 43.4102 302.718 43.4102C299.614 43.4102 297.154 42.4053 295.335 40.3955C293.517 38.3857 292.608 35.6104 292.608 32.0693V31.5566C292.608 28.1797 293.51 25.4795 295.315 23.4561C297.119 21.4189 299.58 20.4004 302.697 20.4004C305.336 20.4004 307.483 21.1729 309.137 22.7178C310.805 24.249 311.68 26.2656 311.762 28.7676H307.066C307.011 27.4961 306.573 26.4502 305.753 25.6299C304.946 24.8096 303.914 24.3994 302.656 24.3994C301.043 24.3994 299.799 24.9873 298.924 26.1631C298.049 27.3252 297.605 29.0957 297.591 31.4746V32.2744C297.591 34.6807 298.022 36.4785 298.883 37.668C299.758 38.8438 301.016 39.4316 302.656 39.4316ZM325.447 43.4102C322.289 43.4102 319.725 42.4189 317.757 40.4365C315.802 38.4404 314.824 35.7881 314.824 32.4795V31.8643C314.824 29.6494 315.248 27.6738 316.096 25.9375C316.957 24.1875 318.16 22.8271 319.705 21.8564C321.25 20.8857 322.972 20.4004 324.873 20.4004C327.894 20.4004 330.225 21.3643 331.866 23.292C333.52 25.2197 334.347 27.9473 334.347 31.4746V33.4844H319.848C319.999 35.3164 320.607 36.7656 321.674 37.832C322.754 38.8984 324.107 39.4316 325.734 39.4316C328.017 39.4316 329.877 38.5088 331.312 36.6631L333.999 39.2266C333.11 40.5527 331.921 41.585 330.43 42.3232C328.954 43.0479 327.293 43.4102 325.447 43.4102ZM324.852 24.3994C323.485 24.3994 322.378 24.8779 321.53 25.835C320.696 26.792 320.163 28.125 319.93 29.834H329.426V29.4648C329.316 27.7969 328.872 26.5391 328.093 25.6914C327.313 24.8301 326.233 24.3994 324.852 24.3994Z" fill="#4D4D4D"/>
<path d="M143.308 71.1885V77H140.59V61.3594H146.573C148.321 61.3594 149.706 61.8141 150.73 62.7236C151.762 63.6331 152.277 64.8363 152.277 66.333C152.277 67.8656 151.772 69.0579 150.763 69.9102C149.76 70.7624 148.353 71.1885 146.541 71.1885H143.308ZM143.308 69.0078H146.573C147.54 69.0078 148.278 68.7822 148.786 68.3311C149.295 67.8727 149.549 67.2139 149.549 66.3545C149.549 65.5094 149.291 64.8363 148.775 64.335C148.26 63.8265 147.551 63.5651 146.648 63.5508H143.308V69.0078ZM161.601 75.8613C160.835 76.7637 159.746 77.2148 158.336 77.2148C157.075 77.2148 156.119 76.846 155.467 76.1084C154.823 75.3708 154.501 74.3037 154.501 72.9072V65.377H157.111V72.875C157.111 74.3503 157.723 75.0879 158.948 75.0879C160.215 75.0879 161.071 74.6331 161.515 73.7236V65.377H164.126V77H161.666L161.601 75.8613ZM177.134 71.3066C177.134 73.1113 176.729 74.5472 175.92 75.6143C175.118 76.6813 174.012 77.2148 172.601 77.2148C171.24 77.2148 170.18 76.7243 169.421 75.7432L169.292 77H166.929V60.5H169.539V66.4941C170.291 65.6061 171.305 65.1621 172.579 65.1621C173.997 65.1621 175.111 65.6885 175.92 66.7412C176.729 67.7939 177.134 69.2656 177.134 71.1562V71.3066ZM174.524 71.0811C174.524 69.8206 174.302 68.8753 173.858 68.2451C173.414 67.6149 172.769 67.2998 171.924 67.2998C170.793 67.2998 169.998 67.7939 169.539 68.7822V73.5732C170.005 74.583 170.807 75.0879 171.946 75.0879C172.762 75.0879 173.392 74.7835 173.836 74.1748C174.28 73.5661 174.509 72.6458 174.524 71.4141V71.0811ZM182.258 77H179.647V60.5H182.258V77ZM188.037 77H185.426V65.377H188.037V77ZM185.265 62.3584C185.265 61.9574 185.39 61.6243 185.641 61.3594C185.899 61.0944 186.264 60.9619 186.737 60.9619C187.209 60.9619 187.575 61.0944 187.832 61.3594C188.09 61.6243 188.219 61.9574 188.219 62.3584C188.219 62.7523 188.09 63.0817 187.832 63.3467C187.575 63.6045 187.209 63.7334 186.737 63.7334C186.264 63.7334 185.899 63.6045 185.641 63.3467C185.39 63.0817 185.265 62.7523 185.265 62.3584ZM197.554 73.8418C197.554 73.3763 197.36 73.0218 196.974 72.7783C196.594 72.5348 195.96 72.32 195.072 72.1338C194.184 71.9476 193.443 71.7113 192.849 71.4248C191.545 70.7946 190.894 69.8815 190.894 68.6855C190.894 67.6829 191.316 66.8451 192.161 66.1719C193.006 65.4987 194.08 65.1621 195.384 65.1621C196.773 65.1621 197.894 65.5059 198.746 66.1934C199.605 66.8809 200.035 67.7725 200.035 68.8682H197.425C197.425 68.3669 197.239 67.9515 196.866 67.6221C196.494 67.2855 196 67.1172 195.384 67.1172C194.811 67.1172 194.342 67.2497 193.977 67.5146C193.618 67.7796 193.439 68.1341 193.439 68.5781C193.439 68.9792 193.608 69.2907 193.944 69.5127C194.281 69.7347 194.961 69.9603 195.985 70.1895C197.009 70.4115 197.812 70.68 198.392 70.9951C198.979 71.3031 199.412 71.6755 199.691 72.1123C199.978 72.5492 200.121 73.0791 200.121 73.7021C200.121 74.7477 199.688 75.5964 198.821 76.248C197.955 76.8926 196.82 77.2148 195.416 77.2148C194.464 77.2148 193.615 77.043 192.87 76.6992C192.125 76.3555 191.545 75.8828 191.13 75.2812C190.715 74.6797 190.507 74.0316 190.507 73.3369H193.042C193.078 73.9528 193.311 74.429 193.74 74.7656C194.17 75.0951 194.739 75.2598 195.448 75.2598C196.136 75.2598 196.659 75.1309 197.017 74.873C197.375 74.6081 197.554 74.2643 197.554 73.8418ZM205.127 66.6445C205.979 65.6562 207.057 65.1621 208.36 65.1621C210.838 65.1621 212.095 66.5765 212.13 69.4053V77H209.52V69.502C209.52 68.6999 209.345 68.1341 208.994 67.8047C208.65 67.4681 208.142 67.2998 207.468 67.2998C206.423 67.2998 205.642 67.7653 205.127 68.6963V77H202.516V60.5H205.127V66.6445ZM227.502 77C227.387 76.778 227.287 76.4163 227.201 75.915C226.37 76.7816 225.353 77.2148 224.15 77.2148C222.983 77.2148 222.03 76.8818 221.293 76.2158C220.555 75.5498 220.186 74.7262 220.186 73.7451C220.186 72.5062 220.645 71.5573 221.561 70.8984C222.485 70.2324 223.803 69.8994 225.514 69.8994H227.115V69.1367C227.115 68.5352 226.947 68.0553 226.61 67.6973C226.274 67.332 225.762 67.1494 225.074 67.1494C224.48 67.1494 223.993 67.2998 223.613 67.6006C223.234 67.8942 223.044 68.2702 223.044 68.7285H220.433C220.433 68.0911 220.645 67.4967 221.067 66.9453C221.49 66.3867 222.063 65.9499 222.786 65.6348C223.516 65.3197 224.329 65.1621 225.224 65.1621C226.585 65.1621 227.67 65.5059 228.479 66.1934C229.289 66.8737 229.704 67.8333 229.725 69.0723V74.3145C229.725 75.36 229.872 76.1943 230.166 76.8174V77H227.502ZM224.634 75.1201C225.149 75.1201 225.633 74.9948 226.084 74.7441C226.542 74.4935 226.886 74.1569 227.115 73.7344V71.543H225.708C224.741 71.543 224.014 71.7113 223.527 72.0479C223.04 72.3844 222.797 72.8607 222.797 73.4766C222.797 73.9779 222.961 74.3789 223.291 74.6797C223.627 74.9733 224.075 75.1201 224.634 75.1201ZM235.032 65.377L235.107 66.7197C235.966 65.6813 237.094 65.1621 238.491 65.1621C240.911 65.1621 242.143 66.5479 242.186 69.3193V77H239.576V69.4697C239.576 68.7321 239.414 68.1878 239.092 67.8369C238.777 67.4788 238.258 67.2998 237.535 67.2998C236.482 67.2998 235.698 67.776 235.182 68.7285V77H232.572V65.377H235.032ZM249.071 73.2617L251.435 65.377H254.217L249.598 78.7617C248.889 80.7168 247.686 81.6943 245.988 81.6943C245.609 81.6943 245.19 81.6299 244.731 81.501V79.4814L245.226 79.5137C245.884 79.5137 246.379 79.3919 246.708 79.1484C247.045 78.9121 247.31 78.5111 247.503 77.9453L247.879 76.9463L243.797 65.377H246.611L249.071 73.2617ZM266.087 73.4014L267.934 65.377H270.48L267.311 77H265.163L262.671 69.0186L260.221 77H258.073L254.893 65.377H257.439L259.319 73.3154L261.704 65.377H263.67L266.087 73.4014ZM274.948 66.6445C275.801 65.6562 276.878 65.1621 278.182 65.1621C280.66 65.1621 281.917 66.5765 281.952 69.4053V77H279.342V69.502C279.342 68.6999 279.167 68.1341 278.816 67.8047C278.472 67.4681 277.963 67.2998 277.29 67.2998C276.245 67.2998 275.464 67.7653 274.948 68.6963V77H272.338V60.5H274.948V66.6445ZM289.869 77.2148C288.215 77.2148 286.872 76.6956 285.841 75.6572C284.817 74.6117 284.304 73.2223 284.304 71.4893V71.167C284.304 70.0068 284.526 68.972 284.971 68.0625C285.422 67.1458 286.052 66.4333 286.861 65.9248C287.67 65.4163 288.573 65.1621 289.568 65.1621C291.151 65.1621 292.372 65.667 293.231 66.6768C294.098 67.6865 294.531 69.1152 294.531 70.9629V72.0156H286.936C287.015 72.9753 287.334 73.7344 287.892 74.293C288.458 74.8516 289.167 75.1309 290.019 75.1309C291.215 75.1309 292.189 74.6475 292.941 73.6807L294.348 75.0234C293.883 75.7181 293.26 76.2588 292.479 76.6455C291.706 77.0251 290.836 77.2148 289.869 77.2148ZM289.557 67.2568C288.841 67.2568 288.261 67.5075 287.817 68.0088C287.38 68.5101 287.101 69.2083 286.979 70.1035H291.953V69.9102C291.896 69.0365 291.663 68.3776 291.255 67.9336C290.846 67.4824 290.281 67.2568 289.557 67.2568ZM302.802 67.7617C302.458 67.7044 302.104 67.6758 301.739 67.6758C300.543 67.6758 299.737 68.1341 299.322 69.0508V77H296.711V65.377H299.204L299.268 66.6768C299.898 65.667 300.772 65.1621 301.889 65.1621C302.261 65.1621 302.569 65.2122 302.813 65.3125L302.802 67.7617ZM309.505 77.2148C307.851 77.2148 306.508 76.6956 305.477 75.6572C304.452 74.6117 303.94 73.2223 303.94 71.4893V71.167C303.94 70.0068 304.162 68.972 304.606 68.0625C305.058 67.1458 305.688 66.4333 306.497 65.9248C307.306 65.4163 308.209 65.1621 309.204 65.1621C310.787 65.1621 312.008 65.667 312.867 66.6768C313.734 67.6865 314.167 69.1152 314.167 70.9629V72.0156H306.572C306.651 72.9753 306.97 73.7344 307.528 74.293C308.094 74.8516 308.803 75.1309 309.655 75.1309C310.851 75.1309 311.825 74.6475 312.577 73.6807L313.984 75.0234C313.519 75.7181 312.896 76.2588 312.115 76.6455C311.342 77.0251 310.472 77.2148 309.505 77.2148ZM309.193 67.2568C308.477 67.2568 307.897 67.5075 307.453 68.0088C307.016 68.5101 306.737 69.2083 306.615 70.1035H311.589V69.9102C311.532 69.0365 311.299 68.3776 310.891 67.9336C310.482 67.4824 309.917 67.2568 309.193 67.2568Z" fill="#4D4D4D"/>
<path d="M86.3334 26.8333V80.9999H11.3334V26.8333" stroke="#5D73A1" stroke-width="6" stroke-linecap="round" stroke-linejoin="round"/>
<path d="M94.6667 6H3V26.8333H94.6667V6Z" stroke="#5D73A1" stroke-width="6" stroke-linecap="round" stroke-linejoin="round"/>
<path d="M40.5 43.5H57.1667" stroke="#5D73A1" stroke-width="6" stroke-linecap="round" stroke-linejoin="round"/>
</svg>
