<svg width="46" height="50" viewBox="0 0 46 50" fill="none" xmlns="http://www.w3.org/2000/svg">
<rect width="46" height="50" fill="white"/>
<path d="M39.2299 3.36392C39.9098 3.17949 40.6495 3.09255 41.3873 3.02756C41.4863 3.01585 41.5848 3.02697 41.6726 3.05507C41.5289 3.22399 41.2893 3.35543 41.0837 3.49887C39.7412 4.37797 38.6131 5.36216 37.6956 6.40607C37.4605 6.66485 37.2549 6.93271 37.0335 7.1953C36.1039 7.67129 35.1174 8.1224 34.337 8.68505C34.959 8.42949 35.5601 8.15753 36.1775 7.89846C36.3359 7.83288 36.4887 7.76146 36.6624 7.70964C36.2069 8.32235 35.7931 8.94588 35.4408 9.58142C35.1473 10.0987 34.9239 10.6277 34.6497 11.1485C33.9867 12.4122 33.1327 13.6403 32.1797 14.8402C31.7892 15.3449 31.3399 15.8341 30.9728 16.3449C30.5209 16.964 30.1274 17.6007 29.5517 18.1871C28.8769 18.8829 27.8467 19.4418 26.7135 19.8876C27.5949 19.6909 28.3895 19.3701 29.0257 18.9678C29.3679 18.7579 29.641 18.5161 29.9066 18.2738C29.8243 18.6467 29.6126 19.0059 29.4466 19.3686C29.0114 20.2503 28.5276 21.1239 28.0087 21.9904C27.7203 22.4576 27.4279 22.9248 27.074 23.3774C27.2598 23.2746 27.4421 23.1695 27.632 23.0694C26.7033 24.4468 26.2763 25.9149 25.3797 27.298C25.0248 27.8507 24.6074 28.3897 24.1297 28.9105C23.7413 29.3499 23.2213 29.7454 22.6725 30.1212C22.3811 30.3118 22.0851 30.5006 21.7555 30.6698C21.2798 30.9289 20.7208 31.1294 20.208 31.3624C19.0488 31.7591 17.9146 32.1921 16.9189 32.7178C17.4886 32.4816 18.0618 32.2392 18.7011 32.0685C17.9984 32.4072 17.3683 32.7966 16.8438 33.2304C16.7037 33.3519 16.5163 33.4658 16.4757 33.6157C16.4412 33.6376 16.4061 33.6596 16.3706 33.6818C16.4996 33.6236 16.6625 33.6127 16.8204 33.6022C17.2221 33.5606 17.6501 33.6092 17.9958 33.7342C18.3512 33.8642 18.5254 34.1183 18.4858 34.3554C18.4944 34.435 18.4056 34.5223 18.4868 34.5964C18.7711 34.8847 18.8909 35.2307 18.7772 35.558C18.6919 35.791 18.4705 36 18.1933 36.1736C18.1035 36.2219 18.0684 36.3355 17.911 36.3027L17.91 36.3226C17.7232 36.3847 17.5363 36.4468 17.3404 36.4989C17.3363 36.5147 17.3282 36.5466 17.3236 36.5624C17.3607 36.5615 17.4338 36.5598 17.4703 36.5589C17.3185 36.57 17.4135 36.6499 17.4028 36.7006C17.4185 36.8551 17.2505 37.0006 17.0271 37.0797C16.8712 37.1394 16.6864 37.1622 16.5072 37.1874C16.431 37.8443 16.6057 38.5249 17.151 39.1098C17.5714 39.5674 18.2157 39.95 18.9712 40.2269C19.8638 40.5571 20.8863 40.7518 21.9195 40.873C22.3328 40.9219 22.7431 40.9954 23.1035 41.1245C23.4772 41.262 23.8372 41.4353 24.0164 41.676C24.3454 42.1043 24.3917 42.5876 24.3089 43.0483C24.2018 43.6739 23.8931 44.284 23.464 44.8604C23.1076 45.3256 22.6664 45.7723 22.1028 46.1649C22.4562 46.2746 22.4582 46.6406 22.0602 46.7155C19.3322 46.9365 16.5722 46.9834 13.8208 46.9766C11.4203 46.9696 9.00755 46.9415 6.63393 46.7167C6.23994 46.6511 6.22572 46.3024 6.53949 46.1769C5.94749 45.789 5.50627 45.3332 5.14934 44.8613C4.7655 44.339 4.48473 43.7887 4.371 43.2243C4.30195 42.8581 4.3055 42.4828 4.46239 42.1239C4.55987 41.8946 4.74671 41.6818 4.9625 41.4828C5.27576 41.2319 5.75049 41.0586 6.25314 40.9596C6.59027 40.8906 6.94821 40.8674 7.29398 40.8174C8.28861 40.6792 9.26598 40.4629 10.0966 40.1127C10.7851 39.825 11.3558 39.4418 11.7239 38.9992C12.1732 38.4637 12.3276 37.8592 12.2768 37.2691C11.1141 37.3197 10.0068 36.7995 9.8057 36.1438C9.78183 36.058 9.77117 35.9705 9.7077 35.8908C9.47923 35.5595 9.48431 35.1643 9.80316 34.8528C9.99 34.6619 10.2987 34.5249 10.616 34.4108C10.7597 34.3624 10.7856 34.2553 10.9059 34.193C11.3928 33.9078 12.1961 33.8279 12.8206 34.0035C12.4215 33.7193 11.9117 33.4851 11.334 33.3329C12.1169 33.4918 12.7596 33.8291 13.2572 34.205C12.7947 33.6215 12.0488 33.0835 11.0232 32.808C11.3675 32.8592 11.6594 32.9872 11.9442 33.1048C12.4454 33.3244 12.8485 33.6084 13.1907 33.911C13.1039 33.7386 13.045 33.5627 12.9785 33.3876C13.2476 33.6546 13.5106 33.9242 13.8203 34.1766C13.5619 33.8578 13.2999 33.5396 13.0846 33.2099C12.9526 32.9913 12.7713 32.7776 12.7368 32.5439C12.5434 31.6994 12.4687 30.8466 12.4824 29.9951C12.4367 28.736 12.75 27.4854 13.0343 26.2404C13.3481 26.6233 13.5918 27.024 13.8766 27.4143C13.9609 27.5232 14.0213 27.6403 14.1432 27.7386C13.9096 27.0469 13.6096 26.363 13.3562 25.6736C13.3237 25.5721 13.2653 25.4716 13.2684 25.3677C13.3715 24.878 13.5273 24.3926 13.6695 23.9064C13.8878 23.1848 14.1031 22.4632 14.3113 21.7407C14.4808 21.135 14.6662 20.5299 14.7804 19.9195C14.8393 20.3048 14.9104 20.6921 15.0926 21.0659C15.4252 21.7954 16.0477 22.4804 16.8976 23.0539C16.7037 22.8349 16.5178 22.6127 16.3564 22.3853C16.3213 22.3528 16.3569 22.3241 16.398 22.3021C16.6199 22.5554 16.8179 22.8162 17.0707 23.06C16.6783 22.6043 16.267 22.1505 15.9751 21.6684C15.9081 21.6657 15.8705 21.6458 15.8624 21.6089C15.5085 20.9149 15.2836 20.1757 15.5257 19.4567C15.5994 19.2691 15.9279 19.1886 16.1452 19.0656C16.3427 18.9558 16.3777 18.7866 16.3442 18.637C16.2508 18.1821 16.43 17.7263 16.693 17.2995C17.2454 16.4181 18.1471 15.63 18.8072 14.7764C19.2464 14.3109 19.7774 13.8768 20.2902 13.4377C21.4722 12.4552 22.6786 11.4819 23.9327 10.5293C24.252 10.2975 24.5531 10.0551 24.9116 9.84254C24.7963 10.0249 24.6643 10.212 24.6958 10.4108C24.7054 10.6037 24.909 10.7641 25.0223 10.9389C25.0421 10.3856 25.3975 9.85952 25.8438 9.37679C26.254 8.93973 26.7526 8.52755 27.3537 8.17012C27.6208 8.0176 27.9072 7.87387 28.2362 7.76731C28.0849 7.95232 28.0077 8.15753 28.0153 8.36245C28.1834 7.91046 28.7241 7.54922 29.2486 7.21637C30.5478 6.43563 32.0756 5.796 33.6252 5.19149C35.4179 4.51028 37.2676 3.86977 39.2299 3.36391L39.2299 3.36392ZM26.2337 13.9672C24.8872 15.4488 23.6473 16.9629 22.5313 18.5071C21.1138 20.4588 19.9023 22.4585 18.8163 24.479C18.7732 24.4784 18.6868 24.4772 18.6432 24.4766C18.5848 24.3522 18.4086 24.2653 18.2944 24.1584C17.8527 23.8133 17.4779 23.4421 17.0906 23.077C17.5094 23.5331 18.0136 23.962 18.5432 24.3777C18.5772 24.4084 18.6081 24.4406 18.6356 24.4743C18.5894 24.474 18.497 24.4731 18.4508 24.4728C18.5264 24.5451 18.5355 24.6256 18.5 24.707C18.5477 24.7073 18.6427 24.7076 18.6904 24.7076C18.632 24.8528 18.5477 24.9936 18.4761 25.1367C17.0266 27.9532 15.8106 30.8077 14.6997 33.6742C14.8297 33.673 14.9865 33.6909 15.1013 33.669C15.8075 31.9198 16.5295 30.1725 17.315 28.4345C17.9852 26.9485 18.6747 25.4649 19.456 23.9968C20.5751 21.8949 21.8251 19.813 23.3249 17.7904C24.2424 16.6045 25.2055 15.4307 26.2047 14.267C26.2895 14.1581 26.4236 14.0583 26.4434 13.9362C26.3703 13.9397 26.2606 13.9105 26.2337 13.9672ZM16.3015 33.8434C16.6194 33.7936 16.9555 33.7656 17.2799 33.813C17.7161 33.8578 18.1126 34.046 18.2172 34.2992C18.238 34.368 18.2857 34.4315 18.3655 34.4854C18.4914 34.2433 18.3319 33.9509 17.9659 33.8068C17.6729 33.7006 17.314 33.6575 16.9712 33.6798C16.7311 33.7006 16.4721 33.736 16.3015 33.8434ZM10.879 34.3235C11.2461 34.2304 11.6401 34.161 12.0458 34.1681C12.4388 34.1613 12.8135 34.2404 13.1684 34.3294C13.0303 34.2386 12.8861 34.1461 12.6967 34.0908C12.1021 33.916 11.2791 34.0094 10.879 34.3235ZM15.968 34.1566C15.7867 34.2213 15.74 34.3499 15.7075 34.4623C15.9375 34.3182 16.2279 34.2017 16.561 34.154C16.8859 34.1045 17.2236 34.1505 17.5368 34.2049C17.2429 34.0794 16.8809 34.0059 16.5128 34.012C16.3021 34.0056 16.133 34.0931 15.968 34.1566V34.1566ZM15.5928 34.7802C15.7689 34.7881 15.9411 34.8136 16.1051 34.8513C16.6158 34.7524 17.186 34.8171 17.6298 34.9804L17.6562 34.9787C17.845 35.1066 18.1045 35.2014 18.2385 35.356C18.2847 35.3917 18.2923 35.4494 18.3695 35.4696C18.5782 35.2278 18.5965 34.9216 18.3081 34.6979C18.1578 34.8314 17.9136 34.9102 17.6907 34.9971C17.6333 34.8943 17.8344 34.9166 17.8994 34.8572C18.0329 34.7565 18.0689 34.6265 18.0684 34.503C17.6749 34.3097 17.1332 34.1938 16.6174 34.2609C16.1584 34.3349 15.8314 34.5539 15.5928 34.7802ZM10.7572 34.4848C10.6947 34.6037 10.7171 34.7295 10.7541 34.8499C11.2151 34.6581 11.7721 34.534 12.3433 34.5275C12.5708 34.5609 12.785 34.5009 13.0074 34.4833C12.3139 34.2828 11.4365 34.2483 10.7572 34.4848ZM9.91892 34.9128C9.63358 35.1801 9.60616 35.5199 9.76153 35.8159C9.84327 35.4485 10.1875 35.1124 10.6846 34.8809C10.6333 34.7638 10.5983 34.6429 10.6302 34.5226C10.3642 34.6323 10.0895 34.7477 9.91892 34.9128ZM12.946 34.5896C13.1811 34.6449 13.4085 34.7108 13.6223 34.7907C13.568 34.6965 13.4354 34.6262 13.2806 34.5881C13.1699 34.5744 13.0567 34.582 12.946 34.5896ZM18.1669 34.726C18.2431 34.7287 18.2908 34.6596 18.2588 34.6247C18.1822 34.6165 18.1466 34.6912 18.1669 34.726ZM10.8435 34.9892C10.9664 35.0996 11.1177 35.2049 11.3289 35.2617C11.4335 35.0155 11.7757 34.8466 12.0808 34.6815C11.6457 34.7459 11.1979 34.8203 10.8435 34.9892V34.9892ZM12.2418 34.7333C11.8884 34.863 11.57 35.0425 11.4294 35.2749C11.4716 35.2828 11.5558 35.2986 11.598 35.3065C11.7752 35.1388 12.0565 35.0024 12.4002 34.9702C12.9297 34.9151 13.441 35.0738 13.8223 35.2734C13.8944 35.1531 13.6873 35.0952 13.5507 35.036C13.2136 34.899 12.8582 34.7638 12.4535 34.7047C12.3768 34.683 12.3042 34.7108 12.2418 34.7333V34.7333ZM15.5699 34.8428C15.5486 34.8996 15.5283 34.9567 15.507 35.0141C15.6537 34.9626 15.8075 34.9181 15.9639 34.8777C15.8355 34.8563 15.704 34.8414 15.5699 34.8428ZM16.3549 34.9388C16.6311 35.0606 16.8296 35.26 16.7595 35.4649C16.7285 35.6303 16.5234 35.762 16.2985 35.8554C16.9469 36.1077 17.8958 35.9368 18.273 35.558C18.207 35.4131 18.0334 35.296 17.8582 35.19C17.4724 34.9655 16.887 34.8823 16.3549 34.9388V34.9388ZM15.5806 35.1379C15.5242 35.1651 15.4425 35.1883 15.4303 35.2348C15.3089 35.5747 15.1952 35.9154 15.0739 36.2553C15.4689 36.2591 15.8639 36.2497 16.2589 36.2483C16.6118 36.2395 16.986 36.2898 17.2342 36.4438C17.6313 36.349 17.9953 36.1973 18.2421 35.993C18.3279 35.8812 18.3177 35.7541 18.3061 35.6353C18.0542 35.8071 17.7191 35.9473 17.3266 35.9845C16.9601 36.0325 16.5712 35.9825 16.2619 35.8621C16.0416 35.9178 15.804 35.897 15.5994 35.8293C15.7969 35.8774 16.0208 35.9183 16.2229 35.8507C16.1091 35.7767 16.0045 35.6953 15.9685 35.5969L15.9284 35.6048C15.9258 35.5609 15.9238 35.5173 15.9274 35.4743C16.0182 35.5138 15.967 35.5858 16.0045 35.6399C16.0568 35.7175 16.1462 35.7901 16.264 35.8393C16.5884 35.7374 16.7925 35.505 16.6955 35.2948C16.6448 35.1514 16.4625 35.0363 16.2513 34.9622C16.0076 34.9825 15.7827 35.058 15.5806 35.1379V35.1379ZM9.95802 36.084C10.2195 36.3946 10.7496 36.6277 11.3416 36.6874C11.3776 36.438 11.7919 36.2784 12.194 36.2535C11.8498 36.1584 11.5406 36.0009 11.3954 35.7936C11.2756 35.6358 11.2705 35.4587 11.3136 35.291C11.0882 35.2327 10.9115 35.1294 10.7816 35.0103C10.2307 35.2626 9.8453 35.6707 9.95802 36.084ZM12.0869 35.1956C12.0168 35.2237 11.9148 35.2483 11.9123 35.3062C11.6838 35.3651 11.6122 35.5387 11.5954 35.6713C11.5711 35.8217 11.7523 35.9382 11.9397 36.0264C11.6919 35.9529 11.5208 35.8062 11.499 35.6461C11.469 35.5354 11.5376 35.4289 11.5792 35.3232C11.5386 35.3188 11.4573 35.3103 11.4172 35.3062C11.3741 35.4356 11.3619 35.5714 11.4253 35.7C11.5178 35.9101 11.7868 36.0811 12.1011 36.1929C12.3118 36.2737 12.5748 36.2491 12.814 36.2538C13.013 36.2594 13.1668 36.1774 13.31 36.1092C13.405 36.0533 13.5375 36.005 13.5537 35.9207C13.6045 35.7799 13.6705 35.6408 13.7121 35.4988C13.602 35.3674 13.3836 35.2711 13.1608 35.2061C12.8287 35.12 12.4124 35.0788 12.0869 35.1956V35.1956ZM18.6198 35.2295C18.568 35.3507 18.4853 35.4664 18.3802 35.5752C18.4101 35.6672 18.4035 35.7611 18.4127 35.8548C18.5716 35.6598 18.6554 35.4453 18.6198 35.2295V35.2295ZM13.2765 36.1666L13.2491 36.1508C13.1679 36.1885 13.0826 36.2231 12.9973 36.2582C13.1394 36.255 13.2821 36.2547 13.4248 36.2541C13.44 36.1997 13.4969 36.1426 13.4568 36.0893C13.376 36.0811 13.3324 36.1408 13.2765 36.1666ZM10.0063 36.2234C10.2352 36.8062 11.2553 37.2816 12.3047 37.2125C12.159 37.159 11.9752 37.1625 11.8259 37.1133C11.5462 37.0387 11.3304 36.8762 11.3446 36.6932C10.8024 36.6569 10.3419 36.4622 10.0063 36.2234Z" fill="url(#paint0_linear_375_560)"/>
<defs>
<linearGradient id="paint0_linear_375_560" x1="23.0004" y1="3.02295" x2="23.0004" y2="46.9772" gradientUnits="userSpaceOnUse">
<stop stop-color="#12C2E9"/>
<stop offset="0.484375" stop-color="#C471ED" stop-opacity="0.65625"/>
<stop offset="1" stop-color="#FF000F" stop-opacity="0.15"/>
</linearGradient>
</defs>
</svg>
